<svg width="278" height="36" viewBox="0 0 278 36" xmlns="http://www.w3.org/2000/svg" xmlns:sketch="http://www.bohemiancoding.com/sketch/ns"><title>Slice 1</title><g sketch:type="MSLayerGroup" fill="none"><path d="M200.642 27.459c1.998 0 3.373-1.572 3.373-3.373 0-1.867-1.375-3.373-3.373-3.373-1.998 0-3.373 1.506-3.373 3.373 0 1.801 1.376 3.373 3.373 3.373zm4.371-.459h10.021v-1.67l-1.932-.917v-12.052c.753-.295 1.572-.491 2.489-.491 1.67 0 2.456.688 2.456 2.587v9.956l-1.932.917v1.67h10.022v-1.67l-1.998-.917v-11.331c0-3.373-1.539-4.88-4.585-4.88-2.489 0-4.716.884-6.353 2.391h-.197v-2.391h-.491l-7.598 1.212v1.605l2.096.95v12.445l-1.998.917v1.67zm39.005-8.613c0-7.696-2.653-10.152-8.155-10.152-5.469 0-9.039 3.504-9.039 9.563 0 6.223 3.242 9.694 9.53 9.694 3.373 0 6.124-1.507 6.976-2.686v-1.768c-1.277.393-2.587.622-4.912.622-3.341 0-5.044-1.703-5.338-5.273h10.939zm-8.253-8.155c1.507 0 2.325.786 2.325 5.666l-5.076.295c.065-4.88 1.081-5.96 2.751-5.96zm17.849.982l1.343-.851v-1.703h-10.611v1.703l1.867.917 4.585 7.139-4.552 5.96-1.867.95v1.67h6.877v-1.67l-1.507-.95 2.489-3.668 2.391 3.701-1.408.917v1.67h10.578v-1.67l-1.899-.95-4.454-7.041 4.192-6.092 1.572-.884v-1.703h-6.419v1.703l1.277.884-2.063 3.799-2.391-3.832zm13.002 10.775c0 3.897 1.703 5.502 5.338 5.502 1.899 0 3.963-.491 4.978-1.081v-2.358c-.459.066-1.31.131-1.965.131-1.769 0-2.26-.917-2.26-2.718v-9.661h3.995v-3.144h-3.995v-4.29l-6.091.852v3.439l-2.817.393v2.751h2.817v10.185z" id="Shape" fill="#4BC6DF" sketch:type="MSShapeGroup"/><path d="M2.817 21.989c0 3.897 1.703 5.502 5.338 5.502 1.899 0 3.963-.491 4.978-1.081v-2.358c-.458.066-1.31.131-1.965.131-1.768 0-2.26-.917-2.26-2.718v-9.661h3.995v-3.144h-3.995v-4.29l-6.091.852v3.439l-2.817.393v2.751h2.817v10.185zm10.644 5.011h10.022v-1.67l-1.932-.917v-12.052c.753-.295 1.572-.491 2.489-.491 1.67 0 2.456.688 2.456 2.587v9.956l-1.932.917v1.67h10.022v-1.67l-1.998-.917v-11.331c0-3.373-1.539-4.88-4.585-4.88-2.489 0-4.716.884-6.354 2.391h-.196v-10.218h-.491l-7.598 1.212v1.605l2.096.95v20.272l-1.998.917v1.67zm39.005-8.613c0-7.696-2.653-10.152-8.155-10.152-5.469 0-9.039 3.504-9.039 9.563 0 6.223 3.242 9.694 9.53 9.694 3.373 0 6.124-1.507 6.976-2.686v-1.768c-1.277.393-2.587.622-4.912.622-3.341 0-5.044-1.703-5.338-5.273h10.938zm-8.253-8.155c1.507 0 2.325.786 2.325 5.666l-5.076.295c.066-4.88 1.081-5.96 2.751-5.96zm21.55 12.74h-6.55c-.721 0-1.31-.524-1.31-1.179 0-.491.36-1.015.819-1.343.982.295 1.801.36 3.013.36 4.716 0 7.958-2.129 7.958-6.124 0-1.801-.753-2.816-1.899-3.864v-.131l3.046 1.081h.426v-3.635h-.36l-4.683.917h-.262c-1.146-.426-2.751-.884-4.225-.884-4.716 0-7.991 2.358-7.991 6.321 0 2.424 1.212 4.225 3.046 5.24v.196c-1.048.721-3.078 2.26-3.078 4.192 0 1.441.95 2.849 2.915 3.275v.197c-2.063.426-4.389 1.113-4.389 3.504 0 2.456 3.537 4.258 9.301 4.258 7.172 0 10.284-2.751 10.284-7.107 0-3.602-1.998-5.273-6.059-5.273zm-4.061 10.087c-3.34 0-4.487-1.179-4.487-2.456 0-.884.229-1.506.721-2.063h6.419c1.506 0 2.194.459 2.194 1.408 0 1.899-1.048 3.111-4.847 3.111zm.033-22.794c1.343 0 2.194.557 2.194 4.225 0 3.668-.884 4.061-2.194 4.061s-2.162-.328-2.162-4.061.852-4.225 2.162-4.225zm12.019 11.397c0 3.177 1.572 5.829 5.273 5.829 2.456 0 4.388-1.081 5.567-2.522h.229v2.424h.491l7.434-.819v-1.572l-2.063-1.081v-15.687h-.491l-7.631 1.212v1.67l2.031.95v11.135c-.622.262-1.179.426-2.194.426-1.539 0-2.555-.36-2.555-2.456v-12.936h-.524l-7.631 1.212v1.67l2.063.95v9.596zm25.021-11.004c.393-.033 1.277-.066 1.572-.066 2.358 0 3.046 1.179 3.046 3.504v2.456l-3.504.59c-4.061.688-6.484 1.441-6.484 5.207 0 3.046 2.03 5.142 5.273 5.142 2.293 0 4.454-.983 5.273-2.62h.164c.295 1.965 1.998 2.587 3.897 2.587 1.474 0 2.849-.426 3.439-.753v-1.375l-1.932-.917v-10.644c0-4.127-2.948-5.568-7.86-5.568-3.21 0-5.273.852-7.009 1.408v4.781h2.849l1.277-3.733zm4.618 12.805c-.328.36-1.015.688-1.67.688-1.179 0-2.293-.655-2.293-2.685 0-1.736 1.146-2.686 2.555-2.817l1.408-.131v4.945zm8.319-14.115v1.67l2.031.95v12.412l-1.932.917v1.703h10.546v-1.703l-2.522-.917v-10.185c1.048-.491 2.424-.655 4.061-.655.524 0 1.179.066 1.539.164v-5.338c-.197-.066-.59-.098-.917-.098-1.998 0-3.635 1.31-4.716 3.734h-.197v-3.865h-.524l-7.369 1.212zm26.102-.327c-.753-.524-1.932-.753-2.948-.753-4.847 0-8.941 2.653-8.941 10.054 0 7.041 3.996 9.17 7.336 9.17 2.292 0 3.864-1.015 4.618-1.998h.197v1.899h.524l7.238-.819v-1.572l-1.932-1.081v-23.187h-.491l-7.631 1.212v1.67l2.031.917v4.487zm0 14.836c-.426.164-.95.327-1.867.327-2.423 0-3.57-1.965-3.57-6.484 0-5.175 1.441-6.91 3.373-6.91 1.081 0 1.605.295 2.063.655v12.412zm8.286-14.508v1.67l2.063.95v12.412l-1.965.917v1.703h10.022v-1.703l-1.965-.917v-16.244h-.491l-7.663 1.212zm5.011-8.744c-1.801 0-3.242 1.441-3.242 3.242 0 1.769 1.441 3.21 3.242 3.21 1.769 0 3.242-1.441 3.242-3.21 0-1.801-1.474-3.242-3.242-3.242zm11.168 10.054c.393-.033 1.277-.066 1.572-.066 2.358 0 3.046 1.179 3.046 3.504v2.456l-3.504.59c-4.061.688-6.484 1.441-6.484 5.207 0 3.046 2.031 5.142 5.273 5.142 2.292 0 4.454-.983 5.273-2.62h.164c.295 1.965 1.998 2.587 3.897 2.587 1.474 0 2.849-.426 3.439-.753v-1.375l-1.932-.917v-10.644c0-4.127-2.947-5.568-7.86-5.568-3.21 0-5.273.852-7.008 1.408v4.781h2.849l1.277-3.733zm4.618 12.805c-.328.36-1.015.688-1.67.688-1.179 0-2.292-.655-2.292-2.685 0-1.736 1.146-2.686 2.554-2.817l1.408-.131v4.945zm8.417 3.537h10.021v-1.67l-1.932-.917v-12.052c.753-.295 1.572-.491 2.489-.491 1.67 0 2.456.688 2.456 2.587v9.956l-1.932.917v1.67h10.022v-1.67l-1.998-.917v-11.331c0-3.373-1.539-4.88-4.585-4.88-2.489 0-4.716.884-6.353 2.391h-.197v-2.391h-.491l-7.598 1.212v1.605l2.096.95v12.445l-1.998.917v1.67z" fill="#214583" sketch:type="MSShapeGroup"/></g></svg>