<svg width="36" height="36" viewBox="0 0 36 36" xmlns="http://www.w3.org/2000/svg" xmlns:sketch="http://www.bohemiancoding.com/sketch/ns"><title>i-rss</title><g sketch:type="MSPage" fill="none"><circle stroke-opacity=".659" stroke="#4BC6DF" sketch:type="MSShapeGroup" cx="18" cy="18" r="17"/><path d="M14.161 25.581c0 1.425-1.156 2.581-2.581 2.581s-2.581-1.155-2.581-2.581c0-1.425 1.156-2.581 2.581-2.581s2.581 1.155 2.581 2.581zm-5.158-6.506c2.418 0 4.691.945 6.399 2.662 1.711 1.719 2.653 4.007 2.653 6.443h3.726c0-7.075-5.732-12.831-12.778-12.831v3.726zm.005-6.605c8.617 0 15.629 7.049 15.629 15.714h3.726c0-10.719-8.682-19.439-19.354-19.439v3.726z" fill="#4BC6DF" sketch:type="MSShapeGroup"/></g></svg>