<svg width="36" height="36" viewBox="0 0 36 36" xmlns="http://www.w3.org/2000/svg"><g fill="none"><circle stroke-opacity=".66" stroke="#4BC6DF" cx="18" cy="18" r="17"/><path d="M27.141 14.526l.016.594c0 6.069-4.857 13.065-13.746 13.065-2.73 0-5.267-.76-7.411-2.065.377.045.763.064 1.151.064 2.268 0 4.348-.734 6.002-1.968-2.113-.032-3.898-1.36-4.508-3.181.292.053.599.08.906.08.442 0 .87-.055 1.272-.157-2.215-.422-3.876-2.28-3.876-4.508v-.055c.653.343 1.402.55 2.188.573-1.293-.822-2.151-2.228-2.151-3.821 0-.841.244-1.63.655-2.31 2.385 2.78 5.943 4.605 9.962 4.801-.083-.337-.123-.689-.123-1.047 0-2.535 2.158-4.591 4.834-4.591 1.388 0 2.646.558 3.528 1.452 1.099-.207 2.134-.589 3.068-1.116-.361 1.072-1.127 1.974-2.124 2.542.98-.109 1.909-.359 2.775-.724-.653.917-1.472 1.727-2.418 2.372z" fill="#4BC6DF"/></g></svg>