<?xml version="1.0" encoding="UTF-8" standalone="no"?>
<svg width="278px" height="36px" viewBox="0 0 278 36" version="1.1" xmlns="http://www.w3.org/2000/svg" xmlns:xlink="http://www.w3.org/1999/xlink" xmlns:sketch="http://www.bohemiancoding.com/sketch/ns">
    <title>Slice 1</title>
    <description>Created with Sketch (http://www.bohemiancoding.com/sketch)</description>
    <defs></defs>
    <g id="Page-1" stroke="none" stroke-width="1" fill="none" fill-rule="evenodd" sketch:type="MSPage">
        <g id="logo" sketch:type="MSLayerGroup">
            <path d="M200.64175,27.4585 C202.6395,27.4585 204.015,25.8865 204.015,24.08525 C204.015,22.2185 202.6395,20.712 200.64175,20.712 C198.644,20.712 197.2685,22.2185 197.2685,24.08525 C197.2685,25.8865 198.644,27.4585 200.64175,27.4585 L200.64175,27.4585 Z M205.01275,27 L215.03425,27 L215.03425,25.32975 L213.102,24.41275 L213.102,12.36075 C213.85525,12.066 214.674,11.8695 215.591,11.8695 C217.26125,11.8695 218.04725,12.55725 218.04725,14.45675 L218.04725,24.41275 L216.115,25.32975 L216.115,27 L226.1365,27 L226.1365,25.32975 L224.13875,24.41275 L224.13875,13.08125 C224.13875,9.708 222.5995,8.2015 219.55375,8.2015 C217.06475,8.2015 214.83775,9.08575 213.20025,10.59225 L213.00375,10.59225 L213.00375,8.2015 L212.5125,8.2015 L204.9145,9.41325 L204.9145,11.018 L207.0105,11.96775 L207.0105,24.41275 L205.01275,25.32975 L205.01275,27 L205.01275,27 Z M244.018,18.38675 C244.018,10.6905 241.36525,8.23425 235.86325,8.23425 C230.394,8.23425 226.82425,11.7385 226.82425,17.79725 C226.82425,24.01975 230.0665,27.49125 236.3545,27.49125 C239.72775,27.49125 242.47875,25.98475 243.33025,24.80575 L243.33025,23.03725 C242.053,23.43025 240.743,23.6595 238.41775,23.6595 C235.07725,23.6595 233.37425,21.9565 233.0795,18.38675 L244.018,18.38675 L244.018,18.38675 Z M235.765,10.232 C237.2715,10.232 238.09025,11.018 238.09025,15.89775 L233.014,16.1925 C233.0795,11.31275 234.09475,10.232 235.765,10.232 L235.765,10.232 Z M253.61375,11.2145 L254.9565,10.363 L254.9565,8.66 L244.3455,8.66 L244.3455,10.363 L246.21225,11.28 L250.79725,18.4195 L246.245,24.38 L244.37825,25.32975 L244.37825,27 L251.25575,27 L251.25575,25.32975 L249.74925,24.38 L252.23825,20.712 L254.629,24.41275 L253.22075,25.32975 L253.22075,27 L263.799,27 L263.799,25.32975 L261.8995,24.38 L257.4455,17.33875 L261.6375,11.24725 L263.2095,10.363 L263.2095,8.66 L256.7905,8.66 L256.7905,10.363 L258.06775,11.24725 L256.0045,15.04625 L253.61375,11.2145 L253.61375,11.2145 Z M266.6155,21.98925 C266.6155,25.8865 268.3185,27.49125 271.95375,27.49125 C273.85325,27.49125 275.9165,27 276.93175,26.4105 L276.93175,24.0525 C276.47325,24.118 275.62175,24.1835 274.96675,24.1835 C273.19825,24.1835 272.707,23.2665 272.707,21.46525 L272.707,11.804 L276.7025,11.804 L276.7025,8.66 L272.707,8.66 L272.707,4.36975 L266.6155,5.22125 L266.6155,8.66 L263.799,9.053 L263.799,11.804 L266.6155,11.804 L266.6155,21.98925 L266.6155,21.98925 Z" id="Shape" fill="#4BC6DF" sketch:type="MSShapeGroup"></path>
            <path d="M2.8165,21.98925 C2.8165,25.8865 4.5195,27.49125 8.15475,27.49125 C10.05425,27.49125 12.1175,27 13.13275,26.4105 L13.13275,24.0525 C12.67425,24.118 11.82275,24.1835 11.16775,24.1835 C9.39925,24.1835 8.908,23.2665 8.908,21.46525 L8.908,11.804 L12.9035,11.804 L12.9035,8.66 L8.908,8.66 L8.908,4.36975 L2.8165,5.22125 L2.8165,8.66 L0,9.053 L0,11.804 L2.8165,11.804 L2.8165,21.98925 L2.8165,21.98925 Z M13.46025,27 L23.48175,27 L23.48175,25.32975 L21.5495,24.41275 L21.5495,12.36075 C22.30275,12.066 23.1215,11.8695 24.0385,11.8695 C25.70875,11.8695 26.49475,12.55725 26.49475,14.45675 L26.49475,24.41275 L24.5625,25.32975 L24.5625,27 L34.584,27 L34.584,25.32975 L32.58625,24.41275 L32.58625,13.08125 C32.58625,9.708 31.047,8.2015 28.00125,8.2015 C25.51225,8.2015 23.28525,9.08575 21.64775,10.59225 L21.45125,10.59225 L21.45125,0.37425 L20.96,0.37425 L13.362,1.586 L13.362,3.19075 L15.458,4.1405 L15.458,24.41275 L13.46025,25.32975 L13.46025,27 L13.46025,27 Z M52.4655,18.38675 C52.4655,10.6905 49.81275,8.23425 44.31075,8.23425 C38.8415,8.23425 35.27175,11.7385 35.27175,17.79725 C35.27175,24.01975 38.514,27.49125 44.802,27.49125 C48.17525,27.49125 50.92625,25.98475 51.77775,24.80575 L51.77775,23.03725 C50.5005,23.43025 49.1905,23.6595 46.86525,23.6595 C43.52475,23.6595 41.82175,21.9565 41.527,18.38675 L52.4655,18.38675 L52.4655,18.38675 Z M44.2125,10.232 C45.719,10.232 46.53775,11.018 46.53775,15.89775 L41.4615,16.1925 C41.527,11.31275 42.54225,10.232 44.2125,10.232 L44.2125,10.232 Z M65.762,22.97175 L59.212,22.97175 C58.4915,22.97175 57.902,22.44775 57.902,21.79275 C57.902,21.3015 58.26225,20.7775 58.72075,20.45 C59.70325,20.74475 60.522,20.81025 61.73375,20.81025 C66.44975,20.81025 69.692,18.6815 69.692,14.686 C69.692,12.88475 68.93875,11.8695 67.7925,10.8215 L67.7925,10.6905 L70.83825,11.77125 L71.264,11.77125 L71.264,8.136 L70.90375,8.136 L66.2205,9.053 L65.9585,9.053 C64.81225,8.62725 63.2075,8.16875 61.73375,8.16875 C57.01775,8.16875 53.74275,10.52675 53.74275,14.4895 C53.74275,16.913 54.9545,18.71425 56.7885,19.7295 L56.7885,19.926 C55.7405,20.6465 53.71,22.18575 53.71,24.118 C53.71,25.559 54.65975,26.96725 56.62475,27.393 L56.62475,27.5895 C54.5615,28.01525 52.23625,28.703 52.23625,31.09375 C52.23625,33.55 55.77325,35.35125 61.53725,35.35125 C68.7095,35.35125 71.82075,32.60025 71.82075,28.2445 C71.82075,24.642 69.823,22.97175 65.762,22.97175 L65.762,22.97175 Z M61.701,33.05875 C58.3605,33.05875 57.21425,31.87975 57.21425,30.6025 C57.21425,29.71825 57.4435,29.096 57.93475,28.53925 L64.35375,28.53925 C65.86025,28.53925 66.548,28.99775 66.548,29.9475 C66.548,31.847 65.5,33.05875 61.701,33.05875 L61.701,33.05875 Z M61.73375,10.26475 C63.0765,10.26475 63.928,10.8215 63.928,14.4895 C63.928,18.1575 63.04375,18.5505 61.73375,18.5505 C60.42375,18.5505 59.57225,18.223 59.57225,14.4895 C59.57225,10.756 60.42375,10.26475 61.73375,10.26475 L61.73375,10.26475 Z M73.753,21.66175 C73.753,24.8385 75.325,27.49125 79.02575,27.49125 C81.482,27.49125 83.41425,26.4105 84.59325,24.9695 L84.8225,24.9695 L84.8225,27.393 L85.31375,27.393 L92.748,26.57425 L92.748,25.00225 L90.68475,23.9215 L90.68475,8.23425 L90.1935,8.23425 L82.56275,9.446 L82.56275,11.11625 L84.59325,12.066 L84.59325,23.201 C83.971,23.463 83.41425,23.62675 82.399,23.62675 C80.85975,23.62675 79.8445,23.2665 79.8445,21.1705 L79.8445,8.23425 L79.3205,8.23425 L71.68975,9.446 L71.68975,11.11625 L73.753,12.066 L73.753,21.66175 L73.753,21.66175 Z M98.774,10.65775 C99.167,10.625 100.05125,10.59225 100.346,10.59225 C102.704,10.59225 103.39175,11.77125 103.39175,14.0965 L103.39175,16.55275 L99.8875,17.14225 C95.8265,17.83 93.403,18.58325 93.403,22.3495 C93.403,25.39525 95.4335,27.49125 98.67575,27.49125 C100.96825,27.49125 103.12975,26.50875 103.9485,24.87125 L104.11225,24.87125 C104.407,26.83625 106.11,27.4585 108.0095,27.4585 C109.48325,27.4585 110.85875,27.03275 111.44825,26.70525 L111.44825,25.32975 L109.516,24.41275 L109.516,13.769 C109.516,9.6425 106.5685,8.2015 101.656,8.2015 C98.4465,8.2015 96.38325,9.053 94.6475,9.60975 L94.6475,14.39125 L97.49675,14.39125 L98.774,10.65775 L98.774,10.65775 Z M103.39175,23.463 C103.06425,23.82325 102.3765,24.15075 101.7215,24.15075 C100.5425,24.15075 99.429,23.49575 99.429,21.46525 C99.429,19.7295 100.57525,18.77975 101.9835,18.64875 L103.39175,18.51775 L103.39175,23.463 L103.39175,23.463 Z M111.71025,9.34775 L111.71025,11.018 L113.74075,11.96775 L113.74075,24.38 L111.8085,25.297 L111.8085,27 L122.354,27 L122.354,25.297 L119.83225,24.38 L119.83225,14.19475 C120.88025,13.7035 122.25575,13.53975 123.89325,13.53975 C124.41725,13.53975 125.07225,13.60525 125.4325,13.7035 L125.4325,8.36525 C125.236,8.29975 124.843,8.267 124.5155,8.267 C122.51775,8.267 120.88025,9.577 119.7995,12.0005 L119.603,12.0005 L119.603,8.136 L119.079,8.136 L111.71025,9.34775 L111.71025,9.34775 Z M137.812,9.02025 C137.05875,8.49625 135.87975,8.267 134.8645,8.267 C130.0175,8.267 125.92375,10.91975 125.92375,18.32125 C125.92375,25.3625 129.91925,27.49125 133.25975,27.49125 C135.55225,27.49125 137.12425,26.476 137.8775,25.4935 L138.074,25.4935 L138.074,27.393 L138.598,27.393 L145.83575,26.57425 L145.83575,25.00225 L143.9035,23.9215 L143.9035,0.7345 L143.41225,0.7345 L135.7815,1.94625 L135.7815,3.6165 L137.812,4.5335 L137.812,9.02025 L137.812,9.02025 Z M137.812,23.856 C137.38625,24.01975 136.86225,24.1835 135.94525,24.1835 C133.52175,24.1835 132.3755,22.2185 132.3755,17.699 C132.3755,12.5245 133.8165,10.78875 135.74875,10.78875 C136.8295,10.78875 137.3535,11.0835 137.812,11.44375 L137.812,23.856 L137.812,23.856 Z M146.09775,9.34775 L146.09775,11.018 L148.161,11.96775 L148.161,24.38 L146.196,25.297 L146.196,27 L156.2175,27 L156.2175,25.297 L154.2525,24.38 L154.2525,8.136 L153.76125,8.136 L146.09775,9.34775 L146.09775,9.34775 Z M151.1085,0.6035 C149.30725,0.6035 147.86625,2.0445 147.86625,3.84575 C147.86625,5.61425 149.30725,7.05525 151.1085,7.05525 C152.877,7.05525 154.35075,5.61425 154.35075,3.84575 C154.35075,2.0445 152.877,0.6035 151.1085,0.6035 L151.1085,0.6035 Z M162.27625,10.65775 C162.66925,10.625 163.5535,10.59225 163.84825,10.59225 C166.20625,10.59225 166.894,11.77125 166.894,14.0965 L166.894,16.55275 L163.38975,17.14225 C159.32875,17.83 156.90525,18.58325 156.90525,22.3495 C156.90525,25.39525 158.93575,27.49125 162.178,27.49125 C164.4705,27.49125 166.632,26.50875 167.45075,24.87125 L167.6145,24.87125 C167.90925,26.83625 169.61225,27.4585 171.51175,27.4585 C172.9855,27.4585 174.361,27.03275 174.9505,26.70525 L174.9505,25.32975 L173.01825,24.41275 L173.01825,13.769 C173.01825,9.6425 170.07075,8.2015 165.15825,8.2015 C161.94875,8.2015 159.8855,9.053 158.14975,9.60975 L158.14975,14.39125 L160.999,14.39125 L162.27625,10.65775 L162.27625,10.65775 Z M166.894,23.463 C166.5665,23.82325 165.87875,24.15075 165.22375,24.15075 C164.04475,24.15075 162.93125,23.49575 162.93125,21.46525 C162.93125,19.7295 164.0775,18.77975 165.48575,18.64875 L166.894,18.51775 L166.894,23.463 L166.894,23.463 Z M175.31075,27 L185.33225,27 L185.33225,25.32975 L183.4,24.41275 L183.4,12.36075 C184.15325,12.066 184.972,11.8695 185.889,11.8695 C187.55925,11.8695 188.34525,12.55725 188.34525,14.45675 L188.34525,24.41275 L186.413,25.32975 L186.413,27 L196.4345,27 L196.4345,25.32975 L194.43675,24.41275 L194.43675,13.08125 C194.43675,9.708 192.8975,8.2015 189.85175,8.2015 C187.36275,8.2015 185.13575,9.08575 183.49825,10.59225 L183.30175,10.59225 L183.30175,8.2015 L182.8105,8.2015 L175.2125,9.41325 L175.2125,11.018 L177.3085,11.96775 L177.3085,24.41275 L175.31075,25.32975 L175.31075,27 L175.31075,27 Z" id="Shape" fill="#214583" sketch:type="MSShapeGroup"></path>
        </g>
    </g>
</svg>