<svg width="36" height="36" viewBox="0 0 36 36" xmlns="http://www.w3.org/2000/svg">
    <g fill="none">
        <circle stroke-opacity=".659" stroke="#4BC6DF" cx="18" cy="18" r="17"/>
        <path d="M18.001 35c-2.222.059-4.506-.5-4.506-.5s.029-2.021.02-3.56c-5.007 1.115-6.063-2.474-6.063-2.474-.819-2.132-1.999-2.7-1.999-2.7-1.634-1.144.124-1.122.124-1.122 1.807.13 2.757 1.902 2.757 1.902 1.606 2.82 4.213 2.005 5.239 1.533.164-1.192.629-2.005 1.143-2.466-3.997-.466-8.199-2.05-8.199-9.122 0-2.014.702-3.663 1.853-4.952-.185-.467-.802-2.344.177-4.884 0 0 1.511-.496 4.949 1.892 1.437-.41 2.976-.614 4.506-.622 1.529.008 3.069.212 4.506.622 3.437-2.388 4.946-1.892 4.946-1.892.981 2.54.364 4.417.179 4.884 1.154 1.289 1.85 2.938 1.85 4.952 0 7.09-4.209 8.65-8.218 9.107.646.57 1.222 1.696 1.222 3.418v5.484s-2.212.44-4.485.5z" fill="#4BC6DF"/>
    </g>
</svg>