<?xml version="1.0" encoding="UTF-8" standalone="no"?>
<svg width="248px" height="40px" viewBox="0 0 248 40" version="1.1" xmlns="http://www.w3.org/2000/svg">
    <g stroke="none" stroke-width="1" fill="none" fill-rule="evenodd">
        <path d="M2.8165,24.98925 C2.8165,28.8865 4.5195,30.49125 8.15475,30.49125 C10.05425,30.49125 12.1175,30 13.13275,29.4105 L13.13275,27.0525 C12.67425,27.118 11.82275,27.1835 11.16775,27.1835 C9.39925,27.1835 8.908,26.2665 8.908,24.46525 L8.908,14.804 L12.9035,14.804 L12.9035,11.66 L8.908,11.66 L8.908,7.36975 L2.8165,8.22125 L2.8165,11.66 L0,12.053 L0,14.804 L2.8165,14.804 L2.8165,24.98925 Z M13.46025,30 L23.48175,30 L23.48175,28.32975 L21.5495,27.41275 L21.5495,15.36075 C22.30275,15.066 23.1215,14.8695 24.0385,14.8695 C25.70875,14.8695 26.49475,15.55725 26.49475,17.45675 L26.49475,27.41275 L24.5625,28.32975 L24.5625,30 L34.584,30 L34.584,28.32975 L32.58625,27.41275 L32.58625,16.08125 C32.58625,12.708 31.047,11.2015 28.00125,11.2015 C25.51225,11.2015 23.28525,12.08575 21.64775,13.59225 L21.45125,13.59225 L21.45125,3.37425 L20.96,3.37425 L13.362,4.586 L13.362,6.19075 L15.458,7.1405 L15.458,27.41275 L13.46025,28.32975 L13.46025,30 Z M52.4655,21.38675 C52.4655,13.6905 49.81275,11.23425 44.31075,11.23425 C38.8415,11.23425 35.27175,14.7385 35.27175,20.79725 C35.27175,27.01975 38.514,30.49125 44.802,30.49125 C48.17525,30.49125 50.92625,28.98475 51.77775,27.80575 L51.77775,26.03725 C50.5005,26.43025 49.1905,26.6595 46.86525,26.6595 C43.52475,26.6595 41.82175,24.9565 41.527,21.38675 L52.4655,21.38675 Z M44.2125,13.232 C45.719,13.232 46.53775,14.018 46.53775,18.89775 L41.4615,19.1925 C41.527,14.31275 42.54225,13.232 44.2125,13.232 Z M65.762,25.97175 L59.212,25.97175 C58.4915,25.97175 57.902,25.44775 57.902,24.79275 C57.902,24.3015 58.26225,23.7775 58.72075,23.45 C59.70325,23.74475 60.522,23.81025 61.73375,23.81025 C66.44975,23.81025 69.692,21.6815 69.692,17.686 C69.692,15.88475 68.93875,14.8695 67.7925,13.8215 L67.7925,13.6905 L70.83825,14.77125 L71.264,14.77125 L71.264,11.136 L70.90375,11.136 L66.2205,12.053 L65.9585,12.053 C64.81225,11.62725 63.2075,11.16875 61.73375,11.16875 C57.01775,11.16875 53.74275,13.52675 53.74275,17.4895 C53.74275,19.913 54.9545,21.71425 56.7885,22.7295 L56.7885,22.926 C55.7405,23.6465 53.71,25.18575 53.71,27.118 C53.71,28.559 54.65975,29.96725 56.62475,30.393 L56.62475,30.5895 C54.5615,31.01525 52.23625,31.703 52.23625,34.09375 C52.23625,36.55 55.77325,38.35125 61.53725,38.35125 C68.7095,38.35125 71.82075,35.60025 71.82075,31.2445 C71.82075,27.642 69.823,25.97175 65.762,25.97175 Z M61.701,36.05875 C58.3605,36.05875 57.21425,34.87975 57.21425,33.6025 C57.21425,32.71825 57.4435,32.096 57.93475,31.53925 L64.35375,31.53925 C65.86025,31.53925 66.548,31.99775 66.548,32.9475 C66.548,34.847 65.5,36.05875 61.701,36.05875 Z M61.73375,13.26475 C63.0765,13.26475 63.928,13.8215 63.928,17.4895 C63.928,21.1575 63.04375,21.5505 61.73375,21.5505 C60.42375,21.5505 59.57225,21.223 59.57225,17.4895 C59.57225,13.756 60.42375,13.26475 61.73375,13.26475 Z M73.753,24.66175 C73.753,27.8385 75.325,30.49125 79.02575,30.49125 C81.482,30.49125 83.41425,29.4105 84.59325,27.9695 L84.8225,27.9695 L84.8225,30.393 L85.31375,30.393 L92.748,29.57425 L92.748,28.00225 L90.68475,26.9215 L90.68475,11.23425 L90.1935,11.23425 L82.56275,12.446 L82.56275,14.11625 L84.59325,15.066 L84.59325,26.201 C83.971,26.463 83.41425,26.62675 82.399,26.62675 C80.85975,26.62675 79.8445,26.2665 79.8445,24.1705 L79.8445,11.23425 L79.3205,11.23425 L71.68975,12.446 L71.68975,14.11625 L73.753,15.066 L73.753,24.66175 Z M98.774,13.65775 C99.167,13.625 100.05125,13.59225 100.346,13.59225 C102.704,13.59225 103.39175,14.77125 103.39175,17.0965 L103.39175,19.55275 L99.8875,20.14225 C95.8265,20.83 93.403,21.58325 93.403,25.3495 C93.403,28.39525 95.4335,30.49125 98.67575,30.49125 C100.96825,30.49125 103.12975,29.50875 103.9485,27.87125 L104.11225,27.87125 C104.407,29.83625 106.11,30.4585 108.0095,30.4585 C109.48325,30.4585 110.85875,30.03275 111.44825,29.70525 L111.44825,28.32975 L109.516,27.41275 L109.516,16.769 C109.516,12.6425 106.5685,11.2015 101.656,11.2015 C98.4465,11.2015 96.38325,12.053 94.6475,12.60975 L94.6475,17.39125 L97.49675,17.39125 L98.774,13.65775 Z M103.39175,26.463 C103.06425,26.82325 102.3765,27.15075 101.7215,27.15075 C100.5425,27.15075 99.429,26.49575 99.429,24.46525 C99.429,22.7295 100.57525,21.77975 101.9835,21.64875 L103.39175,21.51775 L103.39175,26.463 Z M111.71025,12.34775 L111.71025,14.018 L113.74075,14.96775 L113.74075,27.38 L111.8085,28.297 L111.8085,30 L122.354,30 L122.354,28.297 L119.83225,27.38 L119.83225,17.19475 C120.88025,16.7035 122.25575,16.53975 123.89325,16.53975 C124.41725,16.53975 125.07225,16.60525 125.4325,16.7035 L125.4325,11.36525 C125.236,11.29975 124.843,11.267 124.5155,11.267 C122.51775,11.267 120.88025,12.577 119.7995,15.0005 L119.603,15.0005 L119.603,11.136 L119.079,11.136 L111.71025,12.34775 Z M137.812,12.02025 C137.05875,11.49625 135.87975,11.267 134.8645,11.267 C130.0175,11.267 125.92375,13.91975 125.92375,21.32125 C125.92375,28.3625 129.91925,30.49125 133.25975,30.49125 C135.55225,30.49125 137.12425,29.476 137.8775,28.4935 L138.074,28.4935 L138.074,30.393 L138.598,30.393 L145.83575,29.57425 L145.83575,28.00225 L143.9035,26.9215 L143.9035,3.7345 L143.41225,3.7345 L135.7815,4.94625 L135.7815,6.6165 L137.812,7.5335 L137.812,12.02025 Z M137.812,26.856 C137.38625,27.01975 136.86225,27.1835 135.94525,27.1835 C133.52175,27.1835 132.3755,25.2185 132.3755,20.699 C132.3755,15.5245 133.8165,13.78875 135.74875,13.78875 C136.8295,13.78875 137.3535,14.0835 137.812,14.44375 L137.812,26.856 Z M146.09775,12.34775 L146.09775,14.018 L148.161,14.96775 L148.161,27.38 L146.196,28.297 L146.196,30 L156.2175,30 L156.2175,28.297 L154.2525,27.38 L154.2525,11.136 L153.76125,11.136 L146.09775,12.34775 Z M151.1085,3.6035 C149.30725,3.6035 147.86625,5.0445 147.86625,6.84575 C147.86625,8.61425 149.30725,10.05525 151.1085,10.05525 C152.877,10.05525 154.35075,8.61425 154.35075,6.84575 C154.35075,5.0445 152.877,3.6035 151.1085,3.6035 Z M162.27625,13.65775 C162.66925,13.625 163.5535,13.59225 163.84825,13.59225 C166.20625,13.59225 166.894,14.77125 166.894,17.0965 L166.894,19.55275 L163.38975,20.14225 C159.32875,20.83 156.90525,21.58325 156.90525,25.3495 C156.90525,28.39525 158.93575,30.49125 162.178,30.49125 C164.4705,30.49125 166.632,29.50875 167.45075,27.87125 L167.6145,27.87125 C167.90925,29.83625 169.61225,30.4585 171.51175,30.4585 C172.9855,30.4585 174.361,30.03275 174.9505,29.70525 L174.9505,28.32975 L173.01825,27.41275 L173.01825,16.769 C173.01825,12.6425 170.07075,11.2015 165.15825,11.2015 C161.94875,11.2015 159.8855,12.053 158.14975,12.60975 L158.14975,17.39125 L160.999,17.39125 L162.27625,13.65775 Z M166.894,26.463 C166.5665,26.82325 165.87875,27.15075 165.22375,27.15075 C164.04475,27.15075 162.93125,26.49575 162.93125,24.46525 C162.93125,22.7295 164.0775,21.77975 165.48575,21.64875 L166.894,21.51775 L166.894,26.463 Z M175.31075,30 L185.33225,30 L185.33225,28.32975 L183.4,27.41275 L183.4,15.36075 C184.15325,15.066 184.972,14.8695 185.889,14.8695 C187.55925,14.8695 188.34525,15.55725 188.34525,17.45675 L188.34525,27.41275 L186.413,28.32975 L186.413,30 L196.4345,30 L196.4345,28.32975 L194.43675,27.41275 L194.43675,16.08125 C194.43675,12.708 192.8975,11.2015 189.85175,11.2015 C187.36275,11.2015 185.13575,12.08575 183.49825,13.59225 L183.30175,13.59225 L183.30175,11.2015 L182.8105,11.2015 L175.2125,12.41325 L175.2125,14.018 L177.3085,14.96775 L177.3085,27.41275 L175.31075,28.32975 L175.31075,30 Z" fill="#214583"></path>
        <path d="M199.84,20.944 L198.616,20.944 C198.208,21.208 197.776,21.688 197.776,22.384 C197.776,23.296 198.688,23.8 199.816,23.8 C202.384,23.8 203.872,21.856 204.712,18.448 L207.592,6.928 C208.408,3.664 209.464,2.32 211.048,2.32 C212.248,2.32 212.872,2.944 212.872,4.048 C212.872,6.736 208.792,8.608 208.792,10.936 C208.792,12.208 209.512,12.784 210.736,13.744 C211.744,14.536 212.464,15.088 212.464,16.024 C212.464,17.248 211.576,17.992 210.16,17.992 C209.416,17.992 209.032,17.848 208.672,17.584 L209.008,15.808 L207.496,15.808 C207.064,16.144 206.704,16.624 206.704,17.272 C206.704,18.616 208.264,19.264 210.256,19.264 C212.68,19.264 214.432,17.776 214.432,15.616 C214.432,14.08 213.496,13.12 212.44,12.28 C211.168,11.272 210.64,10.864 210.64,10.144 C210.64,8.536 215.104,6.448 215.104,3.928 C215.104,2.104 213.424,1.048 211.432,1.048 C209.08,1.048 206.368,2.464 205.288,7.168 L202.528,19.12 C201.88,21.88 200.896,22.504 199.72,22.504 L199.6,22.504 L199.84,20.944 Z M219.688,19.264 C221.68,19.264 223.288,18.208 224.032,17.44 L224.248,16.312 C223.264,17.104 221.848,17.776 220.408,17.776 C218.704,17.776 218.128,16.816 218.128,15.04 C218.128,14.56 218.152,14.08 218.248,13.6 C222.496,13 226.24,12.016 226.24,8.752 C226.24,7.096 224.896,6.424 223.264,6.424 C220,6.424 215.848,10.312 215.848,15.328 C215.848,17.584 217.096,19.264 219.688,19.264 Z M223,7.72 C223.696,7.72 224.008,8.2 224.008,8.848 C224.008,11.2 221.584,11.92 218.512,12.4 C219.304,9.76 221.2,7.72 223,7.72 Z M227.488,8.104 L229.312,8.104 L226.792,16.408 C226.672,16.792 226.624,17.128 226.624,17.416 C226.624,18.688 227.608,19.216 228.808,19.216 C230.344,19.216 231.28,18.76 231.88,18.376 L232.12,17.368 C231.448,17.584 230.608,17.776 229.504,17.776 C228.784,17.776 228.688,17.32 228.904,16.6 L231.496,8.104 L234.28,8.104 L234.688,6.688 L231.928,6.688 L232.888,3.568 L230.704,3.568 L229.792,6.592 L227.728,7.144 L227.488,8.104 Z M235.744,19.264 C237.616,19.264 239.128,17.992 240.496,16.216 L240.592,16.216 L240.112,17.776 C239.776,18.856 240.256,19.216 241.096,19.216 C242.104,19.216 243.496,18.808 244.192,18.52 L244.456,17.704 L242.296,17.704 L245.92,6.616 L244.36,6.616 L243.736,7.288 L243.592,7.288 C243.184,6.976 242.392,6.712 241.672,6.712 C237.832,6.712 233.416,11.584 233.416,16.408 C233.416,18.136 234.304,19.264 235.744,19.264 Z M236.728,17.584 C236.032,17.584 235.696,16.96 235.696,15.904 C235.696,12.4 238.72,7.984 241.36,7.984 C242.032,7.984 242.632,8.32 242.92,8.824 L241.24,14.128 C239.584,16.072 237.952,17.584 236.728,17.584 Z" fill="#4BC6DF"></path>
    </g>
</svg>